<mxfile host="app.diagrams.net" modified="2023-01-15T19:08:24.116Z" agent="5.0 (Macintosh; Intel Mac OS X 10_15_7) AppleWebKit/537.36 (KHTML, like Gecko) Chrome/109.0.0.0 Safari/537.36" etag="DYiOUGzjGFoU8j_P60l_" version="20.8.5" type="github">
  <diagram id="6a731a19-8d31-9384-78a2-239565b7b9f0" name="Page-1">
    <mxGraphModel dx="1305" dy="822" grid="1" gridSize="10" guides="1" tooltips="1" connect="1" arrows="1" fold="1" page="1" pageScale="1" pageWidth="1169" pageHeight="827" background="none" math="0" shadow="0">
      <root>
        <mxCell id="0" />
        <mxCell id="1" parent="0" />
        <mxCell id="t2X0DrTstsg6XFiXFbpI-1545" style="edgeStyle=orthogonalEdgeStyle;curved=1;orthogonalLoop=1;jettySize=auto;html=1;exitX=0;exitY=0;exitDx=0;exitDy=0;entryX=0.705;entryY=0.95;entryDx=0;entryDy=0;entryPerimeter=0;fontSize=15;noJump=0;orthogonal=0;enumerate=0;comic=0;sketch=1;curveFitting=1;jiggle=2;" edge="1" parent="1" source="1515" target="t2X0DrTstsg6XFiXFbpI-1542">
          <mxGeometry relative="1" as="geometry" />
        </mxCell>
        <mxCell id="1515" value="Pyrhon" style="ellipse;whiteSpace=wrap;html=1;shadow=0;fontFamily=Helvetica;fontSize=30;fontColor=#2F5B7C;align=center;strokeColor=#2F5B7C;strokeWidth=6;fillColor=#FFFFFF;fontStyle=1;gradientColor=none;sketch=1;curveFitting=1;jiggle=2;" parent="1" vertex="1">
          <mxGeometry x="961" y="676.5" width="270" height="270" as="geometry" />
        </mxCell>
        <mxCell id="t2X0DrTstsg6XFiXFbpI-1542" value="&lt;font style=&quot;font-size: 15px;&quot;&gt;Контекстный менеджер with&lt;/font&gt;" style="ellipse;whiteSpace=wrap;html=1;sketch=1;curveFitting=1;jiggle=2;" vertex="1" parent="1">
          <mxGeometry x="690" y="590" width="200" height="100" as="geometry" />
        </mxCell>
      </root>
    </mxGraphModel>
  </diagram>
</mxfile>
